<?xml version="1.0" standalone="no"?>
<!DOCTYPE svg PUBLIC "-//W3C//DTD SVG 20010904//EN"
 "http://www.w3.org/TR/2001/REC-SVG-20010904/DTD/svg10.dtd">
<svg version="1.0" xmlns="http://www.w3.org/2000/svg"
 width="512.000000pt" height="512.000000pt" viewBox="0 0 512.000000 512.000000"
 preserveAspectRatio="xMidYMid meet">

<g transform="translate(0.000000,512.000000) scale(0.100000,-0.100000)"
fill="#000000" stroke="none">
<path d="M2404 4600 c-604 -64 -1115 -476 -1302 -1050 -41 -124 -60 -224 -72
-367 l-9 -116 -256 -469 c-229 -420 -255 -473 -255 -514 0 -53 21 -104 51
-122 11 -7 100 -29 197 -49 97 -19 178 -36 179 -37 1 -1 16 -123 33 -271 17
-149 38 -291 46 -317 33 -101 133 -202 244 -245 39 -15 95 -17 417 -21 l372
-3 84 -252 84 -252 681 -3 682 -2 0 450 0 450 -308 0 -307 0 -259 259 -259
259 -59 6 c-84 10 -218 51 -313 95 -285 133 -509 385 -608 682 -102 307 -63
671 100 943 165 275 423 464 740 542 47 12 134 19 280 23 l213 6 152 152 151
151 -39 11 c-204 58 -464 81 -660 61z"/>
<path d="M4290 4601 c-48 -15 -88 -40 -126 -81 l-38 -40 -356 0 -355 0 -255
-255 -255 -255 -192 0 c-225 0 -315 -11 -438 -51 -126 -42 -225 -101 -322
-193 -191 -180 -285 -396 -285 -656 -1 -150 25 -261 92 -395 141 -283 415
-471 716 -492 l82 -6 258 -258 259 -259 335 0 335 0 40 -41 c52 -54 106 -79
174 -79 84 0 130 18 186 75 56 56 75 102 75 184 0 92 -46 169 -128 214 -107
58 -218 42 -304 -44 l-49 -49 -282 0 -282 0 -123 123 c-67 67 -122 126 -122
130 0 4 97 7 214 7 l215 0 27 -35 c110 -145 347 -117 429 50 27 53 27 165 1
215 -58 111 -182 171 -291 141 -53 -14 -116 -56 -141 -92 l-19 -29 -420 0
c-245 0 -447 5 -485 11 -296 48 -519 295 -537 594 -16 285 150 535 427 641
l75 29 594 3 594 3 40 -42 c52 -54 114 -81 188 -82 159 -1 281 149 248 303
-44 204 -293 273 -435 121 l-39 -41 -175 0 -175 0 125 125 125 125 308 0 308
0 32 -37 c64 -73 195 -105 282 -69 124 52 187 183 150 311 -36 127 -185 212
-305 176z"/>
<path d="M3304 3556 c-28 -13 -64 -40 -80 -60 l-29 -36 -315 0 c-173 0 -342
-5 -375 -10 -130 -21 -238 -102 -294 -220 -23 -48 -26 -68 -26 -160 0 -94 3
-111 27 -161 38 -76 109 -146 188 -183 l65 -31 660 -3 660 -2 158 -158 157
-157 0 -65 c1 -182 159 -300 332 -248 48 14 123 78 147 127 63 123 12 278
-113 344 -30 16 -60 22 -114 22 l-73 1 -130 130 -129 129 132 133 133 132 42
-6 c110 -16 236 68 268 180 45 156 -60 313 -216 324 -90 7 -145 -13 -204 -72
-57 -58 -75 -103 -75 -192 l0 -59 -158 -158 -157 -157 -610 0 c-385 0 -624 4
-647 10 -76 22 -116 109 -81 177 36 71 46 73 416 73 l327 0 37 -41 c95 -105
244 -115 351 -23 79 68 108 164 79 265 -44 149 -210 222 -353 155z"/>
</g>
</svg>
